# xmcd
#
# Track frame offsets:
#	150
#	16661
#	34531
#	49301
#	62886
#	79900
#	98956
#	116304
#	132869
#	147531
#
# Disc length: 2137 seconds
#
# Revision: 0
# Processed by: cddbd v1.5PL3 Copyright (c) Steve Scherf et al.
# Submitted via: dBpowerAMP V4.0
#
DISCID=8308570a
DTITLE=Hip Boot Joe - Hip Boot Joe
DYEAR=2004
DGENRE=Country
TTITLE0=Everything I Need
TTITLE1=Together (Like We Used To Be)
TTITLE2=Everybit
TTITLE3=Here I Go Again
TTITLE4=I Am
TTITLE5=Can't Change Me
TTITLE6=We're Through
TTITLE7=She Does
TTITLE8=Smile
TTITLE9=Better Off
EXTD=
EXTT0=
EXTT1=
EXTT2=
EXTT3=
EXTT4=
EXTT5=
EXTT6=
EXTT7=
EXTT8=
EXTT9=
PLAYORDER=
